<?xml version="1.0" standalone="no"?>
<!DOCTYPE svg PUBLIC "-//W3C//DTD SVG 20010904//EN"
 "http://www.w3.org/TR/2001/REC-SVG-20010904/DTD/svg10.dtd">
<svg version="1.0" xmlns="http://www.w3.org/2000/svg"
 width="456.000000pt" height="456.000000pt" viewBox="0 0 456.000000 456.000000"
 preserveAspectRatio="xMidYMid meet">
<metadata>
Created by potrace 1.14, written by Peter Selinger 2001-2017
</metadata>
<g transform="translate(0.000000,456.000000) scale(0.100000,-0.100000)"
fill="#000000" stroke="none">
<path d="M2177 3243 c-4 -3 -51 -7 -104 -8 -155 -4 -237 -30 -332 -105 -55
-44 -125 -142 -136 -189 -3 -16 -15 -37 -26 -47 -20 -18 -27 -40 -9 -29 6 4 6
-5 -1 -22 -6 -15 -20 -51 -30 -80 -11 -28 -26 -54 -34 -57 -8 -3 -15 -10 -15
-16 0 -6 5 -8 10 -5 13 8 15 13 -25 -100 -19 -55 -35 -106 -35 -113 0 -7 -13
-40 -30 -75 -16 -34 -44 -101 -62 -149 l-33 -87 -34 65 c-28 54 -32 67 -20 75
11 7 11 9 -3 9 -20 0 -58 51 -58 78 0 11 -4 22 -8 24 -15 5 -101 185 -94 194
4 4 2 4 -4 1 -7 -4 -25 8 -41 26 -79 91 -231 174 -368 203 -48 10 -368 12
-393 3 -41 -16 -44 -10 179 -436 33 -62 59 -119 59 -128 0 -8 4 -15 9 -15 4 0
20 -26 35 -57 15 -32 47 -94 71 -138 26 -47 42 -87 39 -98 -3 -10 -1 -16 6
-15 10 3 185 -323 288 -534 l37 -77 185 -1 c273 -1 502 -2 526 -1 12 1 24 9
27 19 10 31 94 263 197 542 56 151 113 308 128 347 14 40 28 71 30 68 15 -14
185 -415 186 -437 0 -16 6 -28 13 -28 6 0 16 -15 22 -33 6 -19 20 -51 31 -72
11 -22 20 -47 20 -57 0 -10 4 -18 9 -18 13 0 42 -85 35 -104 -4 -11 -2 -15 8
-11 8 3 20 -6 30 -23 42 -71 149 -148 238 -173 30 -8 135 -12 307 -14 l262 -1
15 40 c43 127 258 725 267 746 12 28 19 57 24 110 8 76 -39 189 -98 239 -16
13 -34 30 -41 36 -25 24 -127 57 -188 59 -77 3 -128 -7 -191 -40 -90 -46 -133
-98 -172 -206 l-21 -59 -43 98 c-24 54 -51 116 -61 138 -10 22 -61 137 -113
255 -52 118 -120 274 -152 346 l-58 131 -118 -1 c-65 -1 -116 1 -113 6 6 10
-20 11 -29 1z"/>
</g>
</svg>
